<svg width="1200" height="800" viewBox="0 0 1200 800" xmlns="http://www.w3.org/2000/svg">
  <defs>
    <linearGradient id="g_ice_and_snow_in_italy" x1="0%" y1="0%" x2="100%" y2="100%">
      <stop offset="0%" stop-color="#bae6fd"/><stop offset="100%" stop-color="#93c5fd"/>
    </linearGradient>
    <radialGradient id="g_ice_and_snow_in_italy_v" cx="50%" cy="35%" r="75%">
      <stop offset="0%" stop-color="#ffffff" stop-opacity="0.25"/><stop offset="100%" stop-color="#000000" stop-opacity="0.08"/>
    </radialGradient>
  </defs>
  <rect width="1200" height="800" fill="url(#g_ice_and_snow_in_italy)"/>
  <rect width="1200" height="800" fill="url(#g_ice_and_snow_in_italy_v)"/>
  <circle cx="150" cy="150" r="110" fill="#ffffff" opacity="0.08"/>
  <circle cx="1080" cy="680" r="150" fill="#ffffff" opacity="0.08"/>
  <circle cx="600" cy="340" r="150" fill="#fdf6e9" opacity="0.35"/>
  <g transform="translate(490.0,230.0) scale(9.167)" fill="none" stroke="#2b2118" stroke-width="1.4" stroke-linecap="round" stroke-linejoin="round" opacity="0.82"><path d="M10 4l2 1l2 -1" /><path d="M12 2v6.5l3 1.72" /><path d="M17.928 6.268l.134 2.232l1.866 1.232" /><path d="M20.66 7l-5.629 3.25l.01 3.458" /><path d="M19.928 14.268l-1.866 1.232l-.134 2.232" /><path d="M20.66 17l-5.629 -3.25l-2.99 1.738" /><path d="M14 20l-2 -1l-2 1" /><path d="M12 22v-6.5l-3 -1.72" /><path d="M6.072 17.732l-.134 -2.232l-1.866 -1.232" /><path d="M3.34 17l5.629 -3.25l-.01 -3.458" /><path d="M4.072 9.732l1.866 -1.232l.134 -2.232" /><path d="M3.34 7l5.629 3.25l2.99 -1.738" /></g>
  <rect x="0" y="560" width="1200" height="240" fill="#fdf6e9" opacity="0.55"/>
<text x="600" y="660" text-anchor="middle" font-family="Georgia, 'Times New Roman', serif" font-size="50" font-weight="700" fill="#2b2118" opacity="0.92">Ice and Snow in Italy</text>
</svg>